<?xml version="1.0" encoding="UTF-8"?>
<!DOCTYPE svg PUBLIC "-//W3C//DTD SVG 1.1//EN" "http://www.w3.org/Graphics/SVG/1.1/DTD/svg11.dtd">
<!-- Creator: CorelDRAW X7 -->
<svg xmlns="http://www.w3.org/2000/svg" xml:space="preserve" width="210mm" height="297mm" version="1.1" style="shape-rendering:geometricPrecision; text-rendering:geometricPrecision; image-rendering:optimizeQuality; fill-rule:evenodd; clip-rule:evenodd"
viewBox="0 0 21000 29700"
 xmlns:xlink="http://www.w3.org/1999/xlink">
 <defs>
  <style type="text/css">
   <![CDATA[
    .str2 {stroke:#EBECEC;stroke-width:20;stroke-opacity:0.168627}
    .str1 {stroke:#26203A;stroke-width:20}
    .str3 {stroke:#6A3144;stroke-width:20}
    .str0 {stroke:#6A3144;stroke-width:7.62}
    .str4 {stroke:#26203A;stroke-width:20;stroke-linecap:round;stroke-linejoin:round}
    .fil8 {fill:none}
    .fil5 {fill:#26203A}
    .fil4 {fill:#452D54}
    .fil3 {fill:#6A3144}
    .fil2 {fill:#CE6E56}
    .fil1 {fill:#F0B963}
    .fil7 {fill:#EBECEC;fill-opacity:0.168627}
    .fil6 {fill:#EBECEC;fill-opacity:0.188235}
    .fil0 {fill:url(#id0)}
   ]]>
  </style>
  <linearGradient id="id0" gradientUnits="userSpaceOnUse" x1="10335.1" y1="10144.6" x2="10612.9" y2="19451.4">
   <stop offset="0" style="stop-opacity:1; stop-color:#EF9B5A"/>
   <stop offset="1" style="stop-opacity:1; stop-color:#FCC548"/>
  </linearGradient>
 </defs>
 <g id="Layer_x0020_1">
  <metadata id="CorelCorpID_0Corel-Layer"/>
  <g id="_411361752">
  </g>
  <g id="_409255144">
   <polygon class="fil0" points="2346,19308 18602,19308 18602,10288 2346,10288 "/>
   <path class="fil1" d="M2346 12412c377,-143 748,-234 1255,-219 515,16 680,-51 1253,66 871,177 1801,503 2730,314 1122,-229 2697,-351 3854,-208 221,27 1495,306 1630,375 341,174 2080,274 2556,235 907,-74 1241,-337 2455,-337 193,0 365,-5 523,0l0 6794 -16256 0 0 -7020z"/>
   <path class="fil2" d="M2346 14452c216,-150 822,-562 856,-569 579,-118 20,-303 802,-573 423,-147 1485,-1409 1722,-1172 352,353 209,73 508,404 153,169 166,266 423,485 97,83 118,306 443,-56 285,-318 630,-49 697,271 515,179 283,362 760,611 194,101 324,565 670,533 91,-8 29,-63 98,-90 386,-149 475,-361 777,-413 92,-16 215,-540 753,90 68,80 466,-269 834,-344 33,-7 430,-373 761,-468 77,-22 1175,-886 1319,-1029 422,-422 760,1187 1298,557 259,-304 487,332 769,430 444,154 8,311 783,550 267,83 104,423 622,216 96,-39 458,537 756,587 44,7 338,344 586,473 5,3 12,9 19,16l0 4471 -16256 0 0 -4980z"/>
   <path class="fil3" d="M2346 15220c273,-214 938,-659 1176,-650 256,9 62,-367 909,227 101,71 152,-81 441,302 64,85 328,99 578,388 77,88 617,268 846,268 547,0 764,151 1059,-164 15,-16 35,-35 55,-42 89,-31 451,-39 698,-212 342,-240 1035,354 1607,354 394,0 300,248 831,-303 315,-327 844,-40 1327,-515 387,-381 727,77 1325,56 431,-15 210,409 495,422 561,26 640,976 1811,155 105,-73 817,181 1377,-211 35,-25 323,90 623,-85 7,-4 653,-41 1098,108l0 4114 -16256 0 0 -4212z"/>
   <path class="fil4" d="M18602 16466c-321,170 -685,322 -1086,310 -430,-13 -1111,313 -2090,193 -945,-117 -2902,349 -3381,1231 -266,490 139,928 704,1232l5853 0 0 -2966z"/>
   <path class="fil5" d="M2346 16437c597,-21 1216,67 1781,161 509,84 2144,518 2457,506 588,-23 1655,105 2217,-58 2134,-621 3756,693 5657,693 808,0 983,36 1736,129 837,103 970,577 2408,662l0 902 -16256 0 0 -2995z"/>
   <path class="fil5" d="M4145 16964c-24,-98 79,-773 15,-780 -417,-48 -475,8 -579,-501 -98,-480 230,-475 382,-35 60,173 234,248 234,-139 0,-99 5,-432 -79,-459 -461,-144 -675,38 -675,-718 0,-121 -56,-1811 189,-1590 403,364 -6,1606 320,1782 303,164 263,-204 237,-417 -45,-366 -168,-1027 -47,-1360 325,-887 747,-373 747,468 0,107 -79,1204 -93,1223 -2,3 -179,1124 56,956 224,-159 167,-256 167,-580 0,-225 -27,-956 312,-899 228,39 94,1487 104,1741 18,469 -650,18 -650,425 0,117 29,839 -26,872 -147,89 -593,101 -614,11z"/>
   <path class="fil5" d="M16414 18587c68,152 417,202 587,67 38,-29 52,2 18,-82 0,-2488 588,-1313 839,-1819 104,-209 217,-3066 -234,-3084 -520,-21 313,2596 -462,2626 -109,5 90,-2995 -628,-2118 -422,516 -152,1440 -71,2102 118,964 -606,411 -606,80 0,-286 -112,-1081 -112,-1098 17,-428 -218,-634 -272,-320 -90,535 -105,1273 49,1767 162,517 418,470 876,634 232,83 41,1012 16,1245z"/>
   <path class="fil3 str0" d="M6679 15905c-26,-212 -3,-454 37,-652 1,-3 -1,-148 -1,-164 -7,0 -220,-81 -262,-90 -230,-47 -241,-368 -219,-648 14,-165 8,-317 38,-389 27,-64 89,-65 108,41 30,169 -47,671 132,701 252,43 169,-13 179,-252 7,-173 -96,-505 63,-729 87,-123 184,-251 299,3 76,169 -90,1567 -3,1567 233,0 172,-272 172,-482 0,-104 89,-418 171,-155 66,212 98,551 -22,753 -134,226 -386,-103 -386,390 0,257 -289,252 -306,106z"/>
   <path class="fil3 str0" d="M13212 14943c18,-154 2,-330 -28,-474 0,-2 1,-107 1,-120 5,1 160,-58 190,-64 168,-34 176,-268 160,-472 -10,-120 -6,-230 -28,-283 -19,-46 -65,-47 -78,30 -22,123 34,488 -96,510 -183,31 -123,-10 -130,-184 -6,-125 70,-367 -46,-529 -64,-89 -134,-183 -217,2 -56,123 65,1139 2,1139 -170,0 -125,-198 -125,-350 0,-76 -65,-304 -125,-113 -48,154 -71,400 17,547 97,164 280,-74 280,284 0,187 210,183 223,77z"/>
   <path class="fil5" d="M14030 17611c0,-89 17,-447 -59,-468 -157,-43 -165,-6 -228,-92 -35,-50 -80,-155 -80,-342 0,-135 -56,-711 129,-660 59,16 56,716 136,826 24,34 71,28 109,-37 43,-72 -9,-614 11,-781 30,-239 295,-358 295,350 0,113 -19,880 20,901 292,152 21,-869 285,-644 0,0 2,5 4,13 25,106 179,823 -36,814 -602,-23 36,622 -569,433 -55,-17 -17,-266 -17,-313z"/>
   <path class="fil5 str1" d="M4978 16372c-138,129 -119,161 -311,289l65 47c139,104 240,-213 246,-336z"/>
   <path class="fil5 str1" d="M5297 16351c-287,319 -335,692 -493,549l-109 -98c93,-70 154,-183 248,-253l354 -198z"/>
   <path class="fil6" d="M13967 16974c216,-153 1068,172 1471,-125 174,-128 1309,-840 1431,-416 69,240 488,449 831,241 181,-109 563,-136 902,-104l0 573c-355,-47 -789,48 -1023,201 -495,325 -954,-903 -1895,-52 -444,401 -1218,-226 -1717,-318z"/>
   <path class="fil6" d="M7755 15302c-243,-153 -1201,172 -1655,-125 -196,-128 -1473,-840 -1611,-416 -78,240 -548,449 -935,241 -239,-128 -789,-143 -1208,-82l0 586c420,-112 1036,-13 1344,166 558,325 1074,-904 2134,-53 499,402 1370,-225 1931,-317z"/>
   <path class="fil7 str2" d="M6464 13644c142,-86 200,-158 371,-201 1417,-365 1936,-269 3363,22 596,122 962,280 1590,57 782,-278 4078,-334 4279,637 12,2 -2011,-698 -2861,-244 -324,174 -1503,480 -1926,480 -1318,0 -1938,-869 -3514,-676 -223,28 -1237,152 -1302,-75z"/>
   <path class="fil1" d="M3513 10787c-13,446 1510,405 1831,382 546,-37 1324,0 1810,200 103,42 652,191 667,13 35,-399 -633,-484 -932,-519 -379,-46 -2106,13 -2269,-88 -187,-116 -1095,-382 -1107,12l0 0z"/>
   <path class="fil1" d="M13846 10982c-192,-16 -1267,-147 -1390,-197 -196,-81 -1381,-162 -1661,-162 -408,0 -408,596 74,634 326,27 306,67 677,22 476,-59 1456,26 1897,157 410,120 1679,185 2136,128 225,-27 694,-100 870,-230 177,-130 452,-297 213,-577 -66,-77 -731,-17 -959,28 -773,154 -1014,270 -1857,197z"/>
   <path class="fil1" d="M16065 11851c-303,-13 -588,351 -85,391 314,24 556,-254 856,-317 182,-38 700,-85 700,-222 0,-425 -1146,162 -1471,148z"/>
   <path class="fil5 str1" d="M17230 17700c-138,129 -119,161 -311,289l65 47c165,118 263,-203 246,-336z"/>
   <path class="fil3 str3" d="M13298 14753c-72,88 -36,80 -177,165l37 27c94,68 151,-116 140,-192z"/>
   <path class="fil5 str1" d="M17590 17748c-325,279 -420,643 -560,481l-95 -111c101,-57 177,-162 278,-220l377 -150z"/>
   <path class="fil3 str3" d="M13412 14833c-190,105 -226,336 -374,212 58,-33 104,-117 162,-150 94,-47 110,-59 212,-62z"/>
   <path class="fil5 str1" d="M13763 17414c208,375 172,749 359,645l128 -71c-76,-89 -110,-213 -186,-302 -76,-123 -185,-203 -301,-272z"/>
   <path class="fil5 str1" d="M13739 17505c148,403 454,629 254,703l-138 50c-18,-116 -89,-232 -107,-348 -16,-145 -35,-262 -9,-405z"/>
   <path class="fil5 str1" d="M7877 16755c-15,-16 -355,-277 -335,-157 16,90 345,360 296,358 -2,0 -670,-333 -399,-104 56,47 366,228 346,231 -2,0 -536,-227 -472,-60 3,8 596,188 650,188 223,-1 97,43 339,2 269,-45 325,-126 558,-216 90,-35 -123,7 -155,12 -39,7 -236,97 -231,76 2,-11 209,-622 67,-442 -47,59 -123,565 -177,246 -29,-171 16,-355 -43,-508 -50,-129 -35,494 -113,507 -72,-132 -93,-556 -188,-661 -87,-97 65,593 64,590 -34,-151 -580,-1379 -382,-707 45,154 453,945 175,645z"/>
   <path class="fil3 str3" d="M11227 14891c9,-12 194,-230 193,-149 0,61 -190,276 -158,270 2,-1 409,-294 254,-113 -32,38 -218,191 -205,191 1,0 150,-73 252,-113 67,-27 107,-47 97,0 -1,5 -417,211 -452,217 -149,23 -61,39 -225,38 -183,-2 -229,-49 -393,-84 -40,-8 2,-9 45,-9 50,0 222,29 220,26 -2,-7 -205,-389 -92,-286 38,34 143,361 144,144 1,-116 -54,-193 -31,-301 19,-91 81,284 134,284 34,-95 -15,-331 36,-411 47,-73 39,353 39,350 3,-45 53,-213 99,-348 58,-172 113,-290 81,-29 -14,108 -190,552 -38,323z"/>
   <g id="_407356336">
    <path class="fil5 str1" d="M8325 12793c9,6 92,-34 111,-41 177,-66 458,-87 560,-46 19,8 -296,-148 -535,-49 -66,27 -83,39 -100,38 -34,-1 -44,-51 -157,-170 -63,-67 -188,-95 -281,-92 -100,3 -154,37 -25,31 107,-4 209,79 284,164 59,66 96,133 143,165z"/>
    <path class="fil8 str4" d="M8937 12683c0,0 60,25 61,24"/>
   </g>
   <g id="_407356576">
    <path class="fil5 str1" d="M8374 12445c-7,0 -34,-54 -41,-65 -65,-105 -199,-226 -268,-245 -13,-4 209,39 294,186 23,40 26,53 36,60 18,12 43,-9 149,-26 59,-9 135,27 182,65 51,42 65,81 1,27 -45,-38 -117,-45 -178,-37 -71,9 -129,38 -175,35z"/>
    <path class="fil8 str4" d="M8064 12135c0,0 61,20 62,20"/>
   </g>
  </g>
  <polygon class="fil8" points="2346,10288 18602,10288 18602,19432 2346,19432 "/>
 </g>
</svg>
